<?xml version="1.0" encoding="UTF-8" standalone="no"?>
<!-- Created with Inkscape (http://www.inkscape.org/) -->

<svg
   xmlns:dc="http://purl.org/dc/elements/1.1/"
   xmlns:cc="http://creativecommons.org/ns#"
   xmlns:rdf="http://www.w3.org/1999/02/22-rdf-syntax-ns#"
   xmlns:svg="http://www.w3.org/2000/svg"
   xmlns="http://www.w3.org/2000/svg"
   xmlns:sodipodi="http://sodipodi.sourceforge.net/DTD/sodipodi-0.dtd"
   xmlns:inkscape="http://www.inkscape.org/namespaces/inkscape"
   width="136"
   height="29"
   viewBox="0 0 136 29"
   id="svg5772"
   version="1.1"
   inkscape:version="0.91 r13725"
   sodipodi:docname="inquest-logo.svg">
  <defs
     id="defs5774">
    <clipPath
       clipPathUnits="userSpaceOnUse"
       id="clipPath196">
      <path
         d="m 65.236,748.391 c 0,-3.15 2.551,-5.7 5.699,-5.7 l 0,0 c 3.149,0 5.7,2.55 5.7,5.7 l 0,0 c 0,3.148 -2.551,5.699 -5.7,5.699 l 0,0 c -3.146,0 -5.699,-2.552 -5.699,-5.699"
         id="path198"
         inkscape:connector-curvature="0" />
    </clipPath>
    <clipPath
       clipPathUnits="userSpaceOnUse"
       id="clipPath176">
      <path
         d="M 0,792 612,792 612,0 0,0 0,792 Z"
         id="path178"
         inkscape:connector-curvature="0" />
    </clipPath>
    <clipPath
       clipPathUnits="userSpaceOnUse"
       id="clipPath156">
      <path
         d="m 131.505,756.405 c -0.069,0 -0.124,-0.056 -0.124,-0.124 l 0,0 0,-2.427 c 0,-0.07 0.055,-0.125 0.124,-0.125 l 0,0 4.993,0 0,-13.741 c 0,-0.068 0.054,-0.123 0.122,-0.123 l 0,0 2.563,0 c 0.068,0 0.124,0.055 0.124,0.123 l 0,0 0,13.741 4.993,0 c 0.068,0 0.122,0.055 0.122,0.125 l 0,0 0,2.427 c 0,0.068 -0.054,0.124 -0.122,0.124 l 0,0 -12.795,0 z"
         id="path158"
         inkscape:connector-curvature="0" />
    </clipPath>
    <linearGradient
       x1="0"
       y1="0"
       x2="1"
       y2="0"
       gradientUnits="userSpaceOnUse"
       gradientTransform="matrix(-7e-7,16.540527,16.540527,7e-7,137.90186,739.86475)"
       spreadMethod="pad"
       id="linearGradient164">
      <stop
         style="stop-opacity:1;stop-color:#414142"
         offset="0"
         id="stop166" />
      <stop
         style="stop-opacity:1;stop-color:#595a5c"
         offset="1"
         id="stop168" />
    </linearGradient>
    <clipPath
       clipPathUnits="userSpaceOnUse"
       id="clipPath136">
      <path
         d="m 121.023,756.344 c -0.715,-0.304 -1.312,-0.694 -1.774,-1.156 l 0,0 c -0.465,-0.465 -0.811,-0.987 -1.03,-1.551 l 0,0 c -0.214,-0.558 -0.323,-1.096 -0.323,-1.6 l 0,0 c 0,-1.089 0.214,-1.975 0.635,-2.632 l 0,0 c 0.413,-0.645 0.934,-1.166 1.549,-1.548 l 0,0 c 0.598,-0.374 1.26,-0.669 1.965,-0.878 l 0,0 c 0.666,-0.198 1.292,-0.406 1.863,-0.62 l 0,0 c 0.54,-0.204 0.995,-0.457 1.353,-0.755 l 0,0 c 0.318,-0.261 0.465,-0.626 0.465,-1.148 l 0,0 c 0,-0.375 -0.083,-0.702 -0.246,-0.979 l 0,0 c -0.169,-0.288 -0.393,-0.533 -0.664,-0.732 l 0,0 c -0.275,-0.2 -0.584,-0.353 -0.92,-0.455 l 0,0 c -0.89,-0.267 -1.824,-0.189 -2.743,0.231 l 0,0 c -0.547,0.25 -1.003,0.645 -1.356,1.174 l 0,0 -0.128,0.193 c -0.019,0.029 -0.051,0.048 -0.085,0.053 l 0,0 c -0.036,0.003 -0.071,-0.006 -0.098,-0.028 l 0,0 -2.09,-1.799 c -0.05,-0.041 -0.057,-0.114 -0.02,-0.166 l 0,0 0.11,-0.152 c 0.572,-0.796 1.354,-1.393 2.322,-1.774 l 0,0 c 0.945,-0.373 1.959,-0.561 3.016,-0.561 l 0,0 c 0.795,0 1.554,0.118 2.256,0.352 l 0,0 c 0.709,0.237 1.336,0.583 1.859,1.026 l 0,0 c 0.527,0.448 0.952,1.005 1.262,1.657 l 0,0 c 0.311,0.654 0.468,1.395 0.468,2.206 l 0,0 c 0,1.023 -0.217,1.846 -0.642,2.445 l 0,0 c -0.416,0.583 -0.94,1.054 -1.555,1.397 l 0,0 c -0.597,0.334 -1.257,0.598 -1.961,0.783 l 0,0 c -0.665,0.174 -1.287,0.374 -1.849,0.593 l 0,0 c -0.536,0.21 -0.988,0.483 -1.344,0.81 l 0,0 c -0.322,0.299 -0.479,0.726 -0.479,1.307 l 0,0 c 0,0.203 0.043,0.431 0.129,0.681 l 0,0 c 0.081,0.237 0.227,0.465 0.429,0.674 l 0,0 c 0.205,0.212 0.488,0.39 0.84,0.529 l 0,0 c 0.357,0.142 0.817,0.213 1.372,0.213 l 0,0 c 0.57,0 1.086,-0.117 1.532,-0.344 l 0,0 c 0.439,-0.227 0.783,-0.53 1.019,-0.898 l 0,0 0.13,-0.202 c 0.021,-0.031 0.051,-0.051 0.087,-0.055 l 0,0 c 0.038,-0.005 0.073,0.006 0.099,0.031 l 0,0 2.074,1.886 c 0.048,0.044 0.054,0.119 0.011,0.17 l 0,0 -0.122,0.149 c -0.637,0.783 -1.393,1.308 -2.246,1.565 l 0,0 c -0.82,0.247 -1.689,0.373 -2.584,0.373 l 0,0 c -1,0 -1.87,-0.157 -2.586,-0.465"
         id="path138"
         inkscape:connector-curvature="0" />
    </clipPath>
    <linearGradient
       x1="0"
       y1="0"
       x2="1"
       y2="0"
       gradientUnits="userSpaceOnUse"
       gradientTransform="matrix(-8e-7,17.348633,17.348633,8e-7,123.01123,739.46045)"
       spreadMethod="pad"
       id="linearGradient144">
      <stop
         style="stop-opacity:1;stop-color:#414142"
         offset="0"
         id="stop146" />
      <stop
         style="stop-opacity:1;stop-color:#595a5c"
         offset="1"
         id="stop148" />
    </linearGradient>
    <clipPath
       clipPathUnits="userSpaceOnUse"
       id="clipPath116">
      <path
         d="m 102.713,756.405 c -0.07,0 -0.125,-0.056 -0.125,-0.124 l 0,0 0,-16.293 c 0,-0.068 0.055,-0.123 0.125,-0.123 l 0,0 11.065,0 c 0.068,0 0.124,0.055 0.124,0.123 l 0,0 0,2.429 c 0,0.068 -0.056,0.123 -0.124,0.123 l 0,0 -8.381,0 0,4.437 7.415,0 c 0.07,0 0.124,0.054 0.124,0.123 l 0,0 0,2.428 c 0,0.068 -0.054,0.123 -0.124,0.123 l 0,0 -7.415,0 0,4.078 7.976,0 c 0.068,0 0.123,0.055 0.123,0.125 l 0,0 0,2.427 c 0,0.068 -0.055,0.124 -0.123,0.124 l 0,0 -10.66,0 z"
         id="path118"
         inkscape:connector-curvature="0" />
    </clipPath>
    <linearGradient
       x1="0"
       y1="0"
       x2="1"
       y2="0"
       gradientUnits="userSpaceOnUse"
       gradientTransform="matrix(-7e-7,16.540527,16.540527,7e-7,108.24463,739.86475)"
       spreadMethod="pad"
       id="linearGradient124">
      <stop
         style="stop-opacity:1;stop-color:#414142"
         offset="0"
         id="stop126" />
      <stop
         style="stop-opacity:1;stop-color:#595a5c"
         offset="1"
         id="stop128" />
    </linearGradient>
    <clipPath
       clipPathUnits="userSpaceOnUse"
       id="clipPath96">
      <path
         d="m 95.217,756.405 c -0.068,0 -0.123,-0.056 -0.123,-0.124 l 0,0 0,-9.942 c 0,-0.463 -0.065,-0.954 -0.19,-1.455 l 0,0 c -0.126,-0.49 -0.336,-0.949 -0.625,-1.363 l 0,0 c -0.285,-0.405 -0.664,-0.743 -1.125,-1.001 l 0,0 c -0.458,-0.255 -1.038,-0.385 -1.725,-0.385 l 0,0 c -0.686,0 -1.268,0.13 -1.725,0.385 l 0,0 c -0.461,0.258 -0.84,0.595 -1.124,1.001 l 0,0 c -0.29,0.413 -0.5,0.873 -0.626,1.363 l 0,0 c -0.127,0.504 -0.19,0.995 -0.19,1.455 l 0,0 0,9.942 c 0,0.068 -0.056,0.124 -0.125,0.124 l 0,0 -2.561,0 c -0.068,0 -0.124,-0.056 -0.124,-0.124 l 0,0 0,-10.277 c 0,-0.969 0.166,-1.861 0.496,-2.651 l 0,0 c 0.329,-0.792 0.792,-1.488 1.371,-2.068 l 0,0 c 0.583,-0.584 1.277,-1.039 2.063,-1.353 l 0,0 c 0.786,-0.313 1.642,-0.471 2.545,-0.471 l 0,0 c 0.903,0 1.759,0.158 2.545,0.471 l 0,0 c 0.786,0.316 1.48,0.771 2.061,1.353 l 0,0 c 0.583,0.581 1.044,1.278 1.372,2.068 l 0,0 c 0.33,0.79 0.498,1.681 0.498,2.651 l 0,0 0,10.277 c 0,0.068 -0.055,0.124 -0.124,0.124 l 0,0 -2.564,0 z"
         id="path98"
         inkscape:connector-curvature="0" />
    </clipPath>
    <linearGradient
       x1="0"
       y1="0"
       x2="1"
       y2="0"
       gradientUnits="userSpaceOnUse"
       gradientTransform="matrix(-7e-7,16.944824,16.944824,7e-7,91.429199,739.46045)"
       spreadMethod="pad"
       id="linearGradient104">
      <stop
         style="stop-opacity:1;stop-color:#414142"
         offset="0"
         id="stop106" />
      <stop
         style="stop-opacity:1;stop-color:#595a5c"
         offset="1"
         id="stop108" />
    </linearGradient>
    <clipPath
       clipPathUnits="userSpaceOnUse"
       id="clipPath74">
      <path
         d="m 54.957,756.405 c -0.068,0 -0.123,-0.056 -0.123,-0.124 l 0,0 0,-12.25 -8.256,12.319 c -0.024,0.034 -0.062,0.055 -0.103,0.055 l 0,0 -3.141,0 c -0.067,0 -0.122,-0.056 -0.122,-0.124 l 0,0 0,-16.293 c 0,-0.068 0.055,-0.123 0.122,-0.123 l 0,0 2.564,0 c 0.068,0 0.123,0.055 0.123,0.123 l 0,0 0,12.26 8.346,-12.329 c 0.023,-0.034 0.061,-0.054 0.102,-0.054 l 0,0 3.051,0 c 0.068,0 0.122,0.055 0.122,0.123 l 0,0 0,16.293 c 0,0.068 -0.054,0.124 -0.122,0.124 l 0,0 -2.563,0 z"
         id="path76"
         inkscape:connector-curvature="0" />
    </clipPath>
    <linearGradient
       x1="0"
       y1="0"
       x2="1"
       y2="0"
       gradientUnits="userSpaceOnUse"
       gradientTransform="matrix(-7e-7,-16.540527,-16.540527,7e-7,50.427246,756.40527)"
       spreadMethod="pad"
       id="linearGradient82">
      <stop
         style="stop-opacity:1;stop-color:#e12b27"
         offset="0"
         id="stop84" />
      <stop
         style="stop-opacity:1;stop-color:#e12b27"
         offset="0.148896"
         id="stop86" />
      <stop
         style="stop-opacity:1;stop-color:#c52f2c"
         offset="1"
         id="stop88" />
    </linearGradient>
    <clipPath
       clipPathUnits="userSpaceOnUse"
       id="clipPath52">
      <path
         d="m 36.122,756.405 c -0.067,0 -0.122,-0.056 -0.122,-0.124 l 0,0 0,-16.293 c 0,-0.068 0.055,-0.123 0.122,-0.123 l 0,0 2.528,0 c 0.067,0 0.123,0.055 0.123,0.123 l 0,0 0,16.293 c 0,0.068 -0.056,0.124 -0.123,0.124 l 0,0 -2.528,0 z"
         id="path54"
         inkscape:connector-curvature="0" />
    </clipPath>
    <linearGradient
       x1="0"
       y1="0"
       x2="1"
       y2="0"
       gradientUnits="userSpaceOnUse"
       gradientTransform="matrix(-7e-7,-16.540527,-16.540527,7e-7,37.38623,756.40527)"
       spreadMethod="pad"
       id="linearGradient60">
      <stop
         style="stop-opacity:1;stop-color:#e12b27"
         offset="0"
         id="stop62" />
      <stop
         style="stop-opacity:1;stop-color:#e12b27"
         offset="0.148896"
         id="stop64" />
      <stop
         style="stop-opacity:1;stop-color:#c52f2c"
         offset="1"
         id="stop66" />
    </linearGradient>
    <clipPath
       clipPathUnits="userSpaceOnUse"
       id="clipPath36">
      <path
         d="M 0,792 612,792 612,0 0,0 0,792 Z"
         id="path38"
         inkscape:connector-curvature="0" />
    </clipPath>
  </defs>
  <sodipodi:namedview
     id="base"
     pagecolor="#ffffff"
     bordercolor="#666666"
     borderopacity="1.0"
     inkscape:pageopacity="0.0"
     inkscape:pageshadow="2"
     inkscape:zoom="8.3970588"
     inkscape:cx="76.026852"
     inkscape:cy="14.5"
     inkscape:document-units="px"
     inkscape:current-layer="layer1"
     showgrid="false"
     units="px"
     inkscape:window-width="1280"
     inkscape:window-height="692"
     inkscape:window-x="0"
     inkscape:window-y="1"
     inkscape:window-maximized="1" />
  <metadata
     id="metadata5777">
    <rdf:RDF>
      <cc:Work
         rdf:about="">
        <dc:format>image/svg+xml</dc:format>
        <dc:type
           rdf:resource="http://purl.org/dc/dcmitype/StillImage" />
        <dc:title></dc:title>
      </cc:Work>
    </rdf:RDF>
  </metadata>
  <g
     inkscape:label="Layer 1"
     inkscape:groupmode="layer"
     id="layer1"
     transform="translate(0,-1023.3622)">
    <g
       transform="matrix(1.254358,0,0,-1.254358,-45.156887,1973.8479)"
       id="g32">
      <g
         id="g34"
         clip-path="url(#clipPath36)">
        <g
           id="g40"
           transform="translate(83.3608,737.2397)">
          <path
             d="m 0,0 -0.562,0.564 -3.129,3.126 -1.685,-1.686 3.69,-3.69 c 0.395,-0.395 0.913,-0.491 1.403,0 L 0,-1.403 C 0.491,-0.913 0.396,-0.395 0,0"
             style="fill:#e02b26;fill-opacity:1;fill-rule:nonzero;stroke:none"
             id="path42"
             inkscape:connector-curvature="0" />
        </g>
        <g
           id="g44"
           transform="translate(83.2202,735.6948)">
          <path
             d="M 0,0 0.142,0.142 C 0.631,0.632 0.536,1.15 0.141,1.545 L -0.422,2.109 -3.55,5.235 -4.392,4.392 0,0 Z"
             style="fill:#e25656;fill-opacity:1;fill-rule:nonzero;stroke:none"
             id="path46"
             inkscape:connector-curvature="0" />
        </g>
      </g>
    </g>
    <g
       transform="matrix(1.254358,0,0,-1.254358,-45.156887,1973.8479)"
       id="g48">
      <g
         id="g50"
         clip-path="url(#clipPath52)">
        <g
           id="g56">
          <g
             id="g58">
            <path
               d="m 36.122,756.405 c -0.067,0 -0.122,-0.056 -0.122,-0.124 l 0,0 0,-16.293 c 0,-0.068 0.055,-0.123 0.122,-0.123 l 0,0 2.528,0 c 0.067,0 0.123,0.055 0.123,0.123 l 0,0 0,16.293 c 0,0.068 -0.056,0.124 -0.123,0.124 l 0,0 -2.528,0 z"
               style="fill:url(#linearGradient60);stroke:none"
               id="path68"
               inkscape:connector-curvature="0" />
          </g>
        </g>
      </g>
    </g>
    <g
       transform="matrix(1.254358,0,0,-1.254358,-45.156887,1973.8479)"
       id="g70">
      <g
         id="g72"
         clip-path="url(#clipPath74)">
        <g
           id="g78">
          <g
             id="g80">
            <path
               d="m 54.957,756.405 c -0.068,0 -0.123,-0.056 -0.123,-0.124 l 0,0 0,-12.25 -8.256,12.319 c -0.024,0.034 -0.062,0.055 -0.103,0.055 l 0,0 -3.141,0 c -0.067,0 -0.122,-0.056 -0.122,-0.124 l 0,0 0,-16.293 c 0,-0.068 0.055,-0.123 0.122,-0.123 l 0,0 2.564,0 c 0.068,0 0.123,0.055 0.123,0.123 l 0,0 0,12.26 8.346,-12.329 c 0.023,-0.034 0.061,-0.054 0.102,-0.054 l 0,0 3.051,0 c 0.068,0 0.122,0.055 0.122,0.123 l 0,0 0,16.293 c 0,0.068 -0.054,0.124 -0.122,0.124 l 0,0 -2.563,0 z"
               style="fill:url(#linearGradient82);stroke:none"
               id="path90"
               inkscape:connector-curvature="0" />
          </g>
        </g>
      </g>
    </g>
    <g
       transform="matrix(1.254358,0,0,-1.254358,-45.156887,1973.8479)"
       id="g92">
      <g
         id="g94"
         clip-path="url(#clipPath96)">
        <g
           id="g100">
          <g
             id="g102">
            <path
               d="m 95.217,756.405 c -0.068,0 -0.123,-0.056 -0.123,-0.124 l 0,0 0,-9.942 c 0,-0.463 -0.065,-0.954 -0.19,-1.455 l 0,0 c -0.126,-0.49 -0.336,-0.949 -0.625,-1.363 l 0,0 c -0.285,-0.405 -0.664,-0.743 -1.125,-1.001 l 0,0 c -0.458,-0.255 -1.038,-0.385 -1.725,-0.385 l 0,0 c -0.686,0 -1.268,0.13 -1.725,0.385 l 0,0 c -0.461,0.258 -0.84,0.595 -1.124,1.001 l 0,0 c -0.29,0.413 -0.5,0.873 -0.626,1.363 l 0,0 c -0.127,0.504 -0.19,0.995 -0.19,1.455 l 0,0 0,9.942 c 0,0.068 -0.056,0.124 -0.125,0.124 l 0,0 -2.561,0 c -0.068,0 -0.124,-0.056 -0.124,-0.124 l 0,0 0,-10.277 c 0,-0.969 0.166,-1.861 0.496,-2.651 l 0,0 c 0.329,-0.792 0.792,-1.488 1.371,-2.068 l 0,0 c 0.583,-0.584 1.277,-1.039 2.063,-1.353 l 0,0 c 0.786,-0.313 1.642,-0.471 2.545,-0.471 l 0,0 c 0.903,0 1.759,0.158 2.545,0.471 l 0,0 c 0.786,0.316 1.48,0.771 2.061,1.353 l 0,0 c 0.583,0.581 1.044,1.278 1.372,2.068 l 0,0 c 0.33,0.79 0.498,1.681 0.498,2.651 l 0,0 0,10.277 c 0,0.068 -0.055,0.124 -0.124,0.124 l 0,0 -2.564,0 z"
               style="fill:url(#linearGradient104);stroke:none"
               id="path110"
               inkscape:connector-curvature="0" />
          </g>
        </g>
      </g>
    </g>
    <g
       transform="matrix(1.254358,0,0,-1.254358,-45.156887,1973.8479)"
       id="g112">
      <g
         id="g114"
         clip-path="url(#clipPath116)">
        <g
           id="g120">
          <g
             id="g122">
            <path
               d="m 102.713,756.405 c -0.07,0 -0.125,-0.056 -0.125,-0.124 l 0,0 0,-16.293 c 0,-0.068 0.055,-0.123 0.125,-0.123 l 0,0 11.065,0 c 0.068,0 0.124,0.055 0.124,0.123 l 0,0 0,2.429 c 0,0.068 -0.056,0.123 -0.124,0.123 l 0,0 -8.381,0 0,4.437 7.415,0 c 0.07,0 0.124,0.054 0.124,0.123 l 0,0 0,2.428 c 0,0.068 -0.054,0.123 -0.124,0.123 l 0,0 -7.415,0 0,4.078 7.976,0 c 0.068,0 0.123,0.055 0.123,0.125 l 0,0 0,2.427 c 0,0.068 -0.055,0.124 -0.123,0.124 l 0,0 -10.66,0 z"
               style="fill:url(#linearGradient124);stroke:none"
               id="path130"
               inkscape:connector-curvature="0" />
          </g>
        </g>
      </g>
    </g>
    <g
       transform="matrix(1.254358,0,0,-1.254358,-45.156887,1973.8479)"
       id="g132">
      <g
         id="g134"
         clip-path="url(#clipPath136)">
        <g
           id="g140">
          <g
             id="g142">
            <path
               d="m 121.023,756.344 c -0.715,-0.304 -1.312,-0.694 -1.774,-1.156 l 0,0 c -0.465,-0.465 -0.811,-0.987 -1.03,-1.551 l 0,0 c -0.214,-0.558 -0.323,-1.096 -0.323,-1.6 l 0,0 c 0,-1.089 0.214,-1.975 0.635,-2.632 l 0,0 c 0.413,-0.645 0.934,-1.166 1.549,-1.548 l 0,0 c 0.598,-0.374 1.26,-0.669 1.965,-0.878 l 0,0 c 0.666,-0.198 1.292,-0.406 1.863,-0.62 l 0,0 c 0.54,-0.204 0.995,-0.457 1.353,-0.755 l 0,0 c 0.318,-0.261 0.465,-0.626 0.465,-1.148 l 0,0 c 0,-0.375 -0.083,-0.702 -0.246,-0.979 l 0,0 c -0.169,-0.288 -0.393,-0.533 -0.664,-0.732 l 0,0 c -0.275,-0.2 -0.584,-0.353 -0.92,-0.455 l 0,0 c -0.89,-0.267 -1.824,-0.189 -2.743,0.231 l 0,0 c -0.547,0.25 -1.003,0.645 -1.356,1.174 l 0,0 -0.128,0.193 c -0.019,0.029 -0.051,0.048 -0.085,0.053 l 0,0 c -0.036,0.003 -0.071,-0.006 -0.098,-0.028 l 0,0 -2.09,-1.799 c -0.05,-0.041 -0.057,-0.114 -0.02,-0.166 l 0,0 0.11,-0.152 c 0.572,-0.796 1.354,-1.393 2.322,-1.774 l 0,0 c 0.945,-0.373 1.959,-0.561 3.016,-0.561 l 0,0 c 0.795,0 1.554,0.118 2.256,0.352 l 0,0 c 0.709,0.237 1.336,0.583 1.859,1.026 l 0,0 c 0.527,0.448 0.952,1.005 1.262,1.657 l 0,0 c 0.311,0.654 0.468,1.395 0.468,2.206 l 0,0 c 0,1.023 -0.217,1.846 -0.642,2.445 l 0,0 c -0.416,0.583 -0.94,1.054 -1.555,1.397 l 0,0 c -0.597,0.334 -1.257,0.598 -1.961,0.783 l 0,0 c -0.665,0.174 -1.287,0.374 -1.849,0.593 l 0,0 c -0.536,0.21 -0.988,0.483 -1.344,0.81 l 0,0 c -0.322,0.299 -0.479,0.726 -0.479,1.307 l 0,0 c 0,0.203 0.043,0.431 0.129,0.681 l 0,0 c 0.081,0.237 0.227,0.465 0.429,0.674 l 0,0 c 0.205,0.212 0.488,0.39 0.84,0.529 l 0,0 c 0.357,0.142 0.817,0.213 1.372,0.213 l 0,0 c 0.57,0 1.086,-0.117 1.532,-0.344 l 0,0 c 0.439,-0.227 0.783,-0.53 1.019,-0.898 l 0,0 0.13,-0.202 c 0.021,-0.031 0.051,-0.051 0.087,-0.055 l 0,0 c 0.038,-0.005 0.073,0.006 0.099,0.031 l 0,0 2.074,1.886 c 0.048,0.044 0.054,0.119 0.011,0.17 l 0,0 -0.122,0.149 c -0.637,0.783 -1.393,1.308 -2.246,1.565 l 0,0 c -0.82,0.247 -1.689,0.373 -2.584,0.373 l 0,0 c -1,0 -1.87,-0.157 -2.586,-0.465"
               style="fill:url(#linearGradient144);stroke:none"
               id="path150"
               inkscape:connector-curvature="0" />
          </g>
        </g>
      </g>
    </g>
    <g
       transform="matrix(1.254358,0,0,-1.254358,-45.156887,1973.8479)"
       id="g152">
      <g
         id="g154"
         clip-path="url(#clipPath156)">
        <g
           id="g160">
          <g
             id="g162">
            <path
               d="m 131.505,756.405 c -0.069,0 -0.124,-0.056 -0.124,-0.124 l 0,0 0,-2.427 c 0,-0.07 0.055,-0.125 0.124,-0.125 l 0,0 4.993,0 0,-13.741 c 0,-0.068 0.054,-0.123 0.122,-0.123 l 0,0 2.563,0 c 0.068,0 0.124,0.055 0.124,0.123 l 0,0 0,13.741 4.993,0 c 0.068,0 0.122,0.055 0.122,0.125 l 0,0 0,2.427 c 0,0.068 -0.054,0.124 -0.122,0.124 l 0,0 -12.795,0 z"
               style="fill:url(#linearGradient164);stroke:none"
               id="path170"
               inkscape:connector-curvature="0" />
          </g>
        </g>
      </g>
    </g>
    <g
       transform="matrix(1.254358,0,0,-1.254358,-45.156887,1973.8479)"
       id="g172">
      <g
         id="g174"
         clip-path="url(#clipPath176)">
        <g
           id="g180"
           transform="translate(77.478,739.75)">
          <path
             d="M 0,0 1.687,1.686 1.213,2.159 c -0.394,0.396 -0.912,0.492 -1.404,0 L -0.473,1.876 c -0.491,-0.491 -0.395,-1.008 0,-1.403 L 0,0 Z"
             style="fill:#808080;fill-opacity:1;fill-rule:nonzero;stroke:none"
             id="path182"
             inkscape:connector-curvature="0" />
        </g>
        <g
           id="g184"
           transform="translate(70.9355,741.6846)">
          <path
             d="m 0,0 c -3.704,0 -6.706,3.001 -6.706,6.706 0,3.702 3.002,6.705 6.706,6.705 3.703,0 6.706,-3.002 6.706,-6.705 C 6.706,3.001 3.703,0 0,0 m 0,16.07 c -5.172,0 -9.365,-4.193 -9.364,-9.364 C -9.365,1.533 -5.172,-2.659 0,-2.659 5.171,-2.66 9.365,1.533 9.365,6.706 9.365,11.877 5.171,16.07 0,16.07"
             style="fill:#a5a5a6;fill-opacity:1;fill-rule:nonzero;stroke:none"
             id="path186"
             inkscape:connector-curvature="0" />
        </g>
        <g
           id="g188"
           transform="translate(76.8955,755.6138)">
          <path
             d="m 0,0 c -0.125,-1.063 -0.36,-2.091 -0.695,-3.074 0.901,-1.142 1.441,-2.582 1.441,-4.15 0,-3.704 -3.003,-6.705 -6.706,-6.705 -1.568,0 -3.008,0.539 -4.15,1.44 -0.984,-0.333 -2.011,-0.569 -3.074,-0.694 1.718,-2.08 4.316,-3.405 7.224,-3.405 5.171,-10e-4 9.365,4.192 9.365,9.364 C 3.405,-4.317 2.08,-1.719 0,0"
             style="fill:#808080;fill-opacity:1;fill-rule:nonzero;stroke:none"
             id="path190"
             inkscape:connector-curvature="0" />
        </g>
      </g>
    </g>
    <g
       transform="matrix(1.254358,0,0,-1.254358,-45.156887,1973.8479)"
       id="g192">
      <g
         id="g194"
         clip-path="url(#clipPath196)">
        <g
           id="g200"
           transform="translate(59.0122,756.2354)">
          <path
             d="m 0,0 c 0.291,0 0.464,-0.294 0.464,-0.58 0,-0.374 -0.23,-0.598 -0.452,-0.598 -0.29,0 -0.463,0.295 -0.463,0.58 C -0.451,-0.223 -0.222,0 0,0 m 0.015,-1.517 c 0.388,0 0.789,0.35 0.789,0.937 0,0.453 -0.301,0.921 -0.804,0.921 -0.388,0 -0.79,-0.352 -0.79,-0.939 0,-0.452 0.302,-0.919 0.805,-0.919"
             style="fill:#a4a4a5;fill-opacity:1;fill-rule:nonzero;stroke:none"
             id="path202"
             inkscape:connector-curvature="0" />
        </g>
        <path
           d="m 60.647,756.533 -0.339,0 0,-1.773 0.339,0 0,1.773 z"
           style="fill:#a4a4a5;fill-opacity:1;fill-rule:nonzero;stroke:none"
           id="path204"
           inkscape:connector-curvature="0" />
        <g
           id="g206"
           transform="translate(61.9277,756.2354)">
          <path
             d="m 0,0 c 0.291,0 0.465,-0.294 0.465,-0.58 0,-0.374 -0.23,-0.598 -0.453,-0.598 -0.289,0 -0.462,0.295 -0.462,0.58 C -0.45,-0.223 -0.221,0 0,0 m 0.016,-1.517 c 0.387,0 0.789,0.35 0.789,0.937 0,0.453 -0.302,0.921 -0.805,0.921 -0.388,0 -0.79,-0.352 -0.79,-0.939 0,-0.452 0.302,-0.919 0.806,-0.919"
             style="fill:#a4a4a5;fill-opacity:1;fill-rule:nonzero;stroke:none"
             id="path208"
             inkscape:connector-curvature="0" />
        </g>
        <g
           id="g210"
           transform="translate(63.9683,756.2354)">
          <path
             d="m 0,0 c 0.29,0 0.464,-0.294 0.464,-0.58 0,-0.374 -0.231,-0.598 -0.453,-0.598 -0.289,0 -0.462,0.295 -0.462,0.58 C -0.451,-0.223 -0.222,0 0,0 m 0.014,-1.517 c 0.389,0 0.791,0.35 0.791,0.937 0,0.453 -0.302,0.921 -0.805,0.921 -0.389,0 -0.79,-0.352 -0.79,-0.939 0,-0.452 0.302,-0.919 0.804,-0.919"
             style="fill:#a4a4a5;fill-opacity:1;fill-rule:nonzero;stroke:none"
             id="path212"
             inkscape:connector-curvature="0" />
        </g>
        <g
           id="g214"
           transform="translate(66.0073,756.2354)">
          <path
             d="m 0,0 c 0.291,0 0.465,-0.294 0.465,-0.58 0,-0.374 -0.231,-0.598 -0.453,-0.598 -0.29,0 -0.461,0.295 -0.461,0.58 C -0.449,-0.223 -0.221,0 0,0 m 0.015,-1.517 c 0.388,0 0.79,0.35 0.79,0.937 0,0.453 -0.301,0.921 -0.805,0.921 -0.388,0 -0.79,-0.352 -0.79,-0.939 0,-0.452 0.301,-0.919 0.805,-0.919"
             style="fill:#a4a4a5;fill-opacity:1;fill-rule:nonzero;stroke:none"
             id="path216"
             inkscape:connector-curvature="0" />
        </g>
        <path
           d="m 67.643,756.533 -0.34,0 0,-1.773 0.34,0 0,1.773 z"
           style="fill:#a4a4a5;fill-opacity:1;fill-rule:nonzero;stroke:none"
           id="path218"
           inkscape:connector-curvature="0" />
        <g
           id="g220"
           transform="translate(68.9229,756.2354)">
          <path
             d="m 0,0 c 0.292,0 0.465,-0.294 0.465,-0.58 0,-0.374 -0.23,-0.598 -0.453,-0.598 -0.288,0 -0.461,0.295 -0.461,0.58 C -0.449,-0.223 -0.221,0 0,0 m 0.016,-1.517 c 0.387,0 0.79,0.35 0.79,0.937 0,0.453 -0.302,0.921 -0.806,0.921 -0.389,0 -0.79,-0.352 -0.79,-0.939 0,-0.452 0.301,-0.919 0.806,-0.919"
             style="fill:#a4a4a5;fill-opacity:1;fill-rule:nonzero;stroke:none"
             id="path222"
             inkscape:connector-curvature="0" />
        </g>
        <path
           d="m 70.558,756.533 -0.339,0 0,-1.773 0.339,0 0,1.773 z"
           style="fill:#a4a4a5;fill-opacity:1;fill-rule:nonzero;stroke:none"
           id="path224"
           inkscape:connector-curvature="0" />
        <g
           id="g226"
           transform="translate(71.8389,756.2354)">
          <path
             d="m 0,0 c 0.291,0 0.465,-0.294 0.465,-0.58 0,-0.374 -0.23,-0.598 -0.453,-0.598 -0.289,0 -0.462,0.295 -0.462,0.58 C -0.45,-0.223 -0.221,0 0,0 m 0.015,-1.517 c 0.389,0 0.79,0.35 0.79,0.937 0,0.453 -0.301,0.921 -0.805,0.921 -0.389,0 -0.789,-0.352 -0.789,-0.939 0,-0.452 0.301,-0.919 0.804,-0.919"
             style="fill:#a4a4a5;fill-opacity:1;fill-rule:nonzero;stroke:none"
             id="path228"
             inkscape:connector-curvature="0" />
        </g>
        <g
           id="g230"
           transform="translate(73.8779,756.2354)">
          <path
             d="m 0,0 c 0.292,0 0.466,-0.294 0.466,-0.58 0,-0.374 -0.231,-0.598 -0.454,-0.598 -0.288,0 -0.46,0.295 -0.46,0.58 C -0.448,-0.223 -0.221,0 0,0 m 0.016,-1.517 c 0.388,0 0.789,0.35 0.789,0.937 0,0.453 -0.3,0.921 -0.805,0.921 -0.388,0 -0.79,-0.352 -0.79,-0.939 0,-0.452 0.302,-0.919 0.806,-0.919"
             style="fill:#a4a4a5;fill-opacity:1;fill-rule:nonzero;stroke:none"
             id="path232"
             inkscape:connector-curvature="0" />
        </g>
        <path
           d="m 75.514,756.533 -0.34,0 0,-1.773 0.34,0 0,1.773 z"
           style="fill:#a4a4a5;fill-opacity:1;fill-rule:nonzero;stroke:none"
           id="path234"
           inkscape:connector-curvature="0" />
        <g
           id="g236"
           transform="translate(76.7944,756.2354)">
          <path
             d="m 0,0 c 0.291,0 0.465,-0.294 0.465,-0.58 0,-0.374 -0.23,-0.598 -0.453,-0.598 -0.289,0 -0.461,0.295 -0.461,0.58 C -0.449,-0.223 -0.22,0 0,0 m 0.015,-1.517 c 0.388,0 0.79,0.35 0.79,0.937 0,0.453 -0.301,0.921 -0.805,0.921 -0.388,0 -0.791,-0.352 -0.791,-0.939 0,-0.452 0.302,-0.919 0.806,-0.919"
             style="fill:#a4a4a5;fill-opacity:1;fill-rule:nonzero;stroke:none"
             id="path238"
             inkscape:connector-curvature="0" />
        </g>
        <g
           id="g240"
           transform="translate(78.834,756.2354)">
          <path
             d="m 0,0 c 0.292,0 0.465,-0.294 0.465,-0.58 0,-0.374 -0.23,-0.598 -0.453,-0.598 -0.289,0 -0.462,0.295 -0.462,0.58 C -0.45,-0.223 -0.221,0 0,0 m 0.015,-1.517 c 0.389,0 0.79,0.35 0.79,0.937 0,0.453 -0.301,0.921 -0.805,0.921 -0.389,0 -0.79,-0.352 -0.79,-0.939 0,-0.452 0.302,-0.919 0.805,-0.919"
             style="fill:#a4a4a5;fill-opacity:1;fill-rule:nonzero;stroke:none"
             id="path242"
             inkscape:connector-curvature="0" />
        </g>
        <g
           id="g244"
           transform="translate(80.8745,756.2354)">
          <path
             d="m 0,0 c 0.291,0 0.463,-0.294 0.463,-0.58 0,-0.374 -0.23,-0.598 -0.453,-0.598 -0.288,0 -0.461,0.295 -0.461,0.58 C -0.451,-0.223 -0.222,0 0,0 m 0.014,-1.517 c 0.388,0 0.79,0.35 0.79,0.937 0,0.453 -0.301,0.921 -0.804,0.921 -0.389,0 -0.791,-0.352 -0.791,-0.939 0,-0.452 0.302,-0.919 0.805,-0.919"
             style="fill:#a4a4a5;fill-opacity:1;fill-rule:nonzero;stroke:none"
             id="path246"
             inkscape:connector-curvature="0" />
        </g>
        <g
           id="g248"
           transform="translate(82.9136,756.2354)">
          <path
             d="m 0,0 c 0.291,0 0.465,-0.294 0.465,-0.58 0,-0.374 -0.231,-0.598 -0.453,-0.598 -0.289,0 -0.462,0.295 -0.462,0.58 C -0.45,-0.223 -0.222,0 0,0 m 0.016,-1.517 c 0.387,0 0.789,0.35 0.789,0.937 0,0.453 -0.302,0.921 -0.805,0.921 -0.388,0 -0.79,-0.352 -0.79,-0.939 0,-0.452 0.301,-0.919 0.806,-0.919"
             style="fill:#a4a4a5;fill-opacity:1;fill-rule:nonzero;stroke:none"
             id="path250"
             inkscape:connector-curvature="0" />
        </g>
        <g
           id="g252"
           transform="translate(59.0122,752.6099)">
          <path
             d="m 0,0 c 0.291,0 0.464,-0.296 0.464,-0.58 0,-0.375 -0.23,-0.598 -0.452,-0.598 -0.29,0 -0.463,0.295 -0.463,0.58 C -0.451,-0.224 -0.222,0 0,0 m 0.015,-1.519 c 0.388,0 0.789,0.352 0.789,0.939 0,0.452 -0.301,0.92 -0.804,0.92 -0.388,0 -0.79,-0.351 -0.79,-0.938 0,-0.452 0.302,-0.921 0.805,-0.921"
             style="fill:#a4a4a5;fill-opacity:1;fill-rule:nonzero;stroke:none"
             id="path254"
             inkscape:connector-curvature="0" />
        </g>
        <path
           d="m 60.647,752.908 -0.339,0 0,-1.773 0.339,0 0,1.773 z"
           style="fill:#a4a4a5;fill-opacity:1;fill-rule:nonzero;stroke:none"
           id="path256"
           inkscape:connector-curvature="0" />
        <g
           id="g258"
           transform="translate(61.9277,752.6099)">
          <path
             d="m 0,0 c 0.291,0 0.465,-0.296 0.465,-0.58 0,-0.375 -0.23,-0.598 -0.453,-0.598 -0.289,0 -0.462,0.295 -0.462,0.58 C -0.45,-0.224 -0.221,0 0,0 m 0.016,-1.519 c 0.387,0 0.789,0.352 0.789,0.939 0,0.452 -0.302,0.92 -0.805,0.92 -0.388,0 -0.79,-0.351 -0.79,-0.938 0,-0.452 0.302,-0.921 0.806,-0.921"
             style="fill:#a4a4a5;fill-opacity:1;fill-rule:nonzero;stroke:none"
             id="path260"
             inkscape:connector-curvature="0" />
        </g>
        <g
           id="g262"
           transform="translate(63.9683,752.6099)">
          <path
             d="m 0,0 c 0.29,0 0.464,-0.296 0.464,-0.58 0,-0.375 -0.231,-0.598 -0.453,-0.598 -0.289,0 -0.462,0.295 -0.462,0.58 C -0.451,-0.224 -0.222,0 0,0 m 0.014,-1.519 c 0.389,0 0.791,0.352 0.791,0.939 0,0.452 -0.302,0.92 -0.805,0.92 -0.389,0 -0.79,-0.351 -0.79,-0.938 0,-0.452 0.302,-0.921 0.804,-0.921"
             style="fill:#a4a4a5;fill-opacity:1;fill-rule:nonzero;stroke:none"
             id="path264"
             inkscape:connector-curvature="0" />
        </g>
        <path
           d="m 65.603,752.908 -0.339,0 0,-1.773 0.339,0 0,1.773 z"
           style="fill:#a4a4a5;fill-opacity:1;fill-rule:nonzero;stroke:none"
           id="path266"
           inkscape:connector-curvature="0" />
        <g
           id="g268"
           transform="translate(66.8828,752.6099)">
          <path
             d="m 0,0 c 0.292,0 0.466,-0.296 0.466,-0.58 0,-0.375 -0.231,-0.598 -0.453,-0.598 -0.289,0 -0.462,0.295 -0.462,0.58 C -0.449,-0.224 -0.221,0 0,0 m 0,0.34 c -0.388,0 -0.789,-0.351 -0.789,-0.938 0,-0.452 0.301,-0.921 0.805,-0.921 0.388,0 0.789,0.352 0.789,0.939 0,0.452 -0.3,0.92 -0.805,0.92"
             style="fill:#a4a4a5;fill-opacity:1;fill-rule:nonzero;stroke:none"
             id="path270"
             inkscape:connector-curvature="0" />
        </g>
        <g
           id="g272"
           transform="translate(68.9229,752.6099)">
          <path
             d="m 0,0 c 0.292,0 0.465,-0.296 0.465,-0.58 0,-0.375 -0.23,-0.598 -0.453,-0.598 -0.288,0 -0.461,0.295 -0.461,0.58 C -0.449,-0.224 -0.221,0 0,0 m 0.016,-1.519 c 0.387,0 0.79,0.352 0.79,0.939 0,0.452 -0.302,0.92 -0.806,0.92 -0.389,0 -0.79,-0.351 -0.79,-0.938 0,-0.452 0.301,-0.921 0.806,-0.921"
             style="fill:#a4a4a5;fill-opacity:1;fill-rule:nonzero;stroke:none"
             id="path274"
             inkscape:connector-curvature="0" />
        </g>
        <path
           d="m 70.558,752.908 -0.339,0 0,-1.773 0.339,0 0,1.773 z"
           style="fill:#a4a4a5;fill-opacity:1;fill-rule:nonzero;stroke:none"
           id="path276"
           inkscape:connector-curvature="0" />
        <g
           id="g278"
           transform="translate(71.8389,752.6099)">
          <path
             d="m 0,0 c 0.291,0 0.465,-0.296 0.465,-0.58 0,-0.375 -0.23,-0.598 -0.453,-0.598 -0.289,0 -0.462,0.295 -0.462,0.58 C -0.45,-0.224 -0.221,0 0,0 m 0.805,-0.58 c 0,0.452 -0.301,0.92 -0.805,0.92 -0.389,0 -0.789,-0.351 -0.789,-0.938 0,-0.452 0.301,-0.921 0.804,-0.921 0.389,0 0.79,0.352 0.79,0.939"
             style="fill:#a4a4a5;fill-opacity:1;fill-rule:nonzero;stroke:none"
             id="path280"
             inkscape:connector-curvature="0" />
        </g>
        <g
           id="g282"
           transform="translate(73.8779,752.6099)">
          <path
             d="m 0,0 c 0.292,0 0.466,-0.296 0.466,-0.58 0,-0.375 -0.231,-0.598 -0.454,-0.598 -0.288,0 -0.46,0.295 -0.46,0.58 C -0.448,-0.224 -0.221,0 0,0 m 0.016,-1.519 c 0.388,0 0.789,0.352 0.789,0.939 0,0.452 -0.3,0.92 -0.805,0.92 -0.388,0 -0.79,-0.351 -0.79,-0.938 0,-0.452 0.302,-0.921 0.806,-0.921"
             style="fill:#a4a4a5;fill-opacity:1;fill-rule:nonzero;stroke:none"
             id="path284"
             inkscape:connector-curvature="0" />
        </g>
        <path
           d="m 75.514,752.908 -0.34,0 0,-1.773 0.34,0 0,1.773 z"
           style="fill:#a4a4a5;fill-opacity:1;fill-rule:nonzero;stroke:none"
           id="path286"
           inkscape:connector-curvature="0" />
        <g
           id="g288"
           transform="translate(76.7944,752.6099)">
          <path
             d="m 0,0 c 0.291,0 0.465,-0.296 0.465,-0.58 0,-0.375 -0.23,-0.598 -0.453,-0.598 -0.289,0 -0.461,0.295 -0.461,0.58 C -0.449,-0.224 -0.22,0 0,0 m 0.805,-0.58 c 0,0.452 -0.301,0.92 -0.805,0.92 -0.388,0 -0.791,-0.351 -0.791,-0.938 0,-0.452 0.302,-0.921 0.806,-0.921 0.388,0 0.79,0.352 0.79,0.939"
             style="fill:#a4a4a5;fill-opacity:1;fill-rule:nonzero;stroke:none"
             id="path290"
             inkscape:connector-curvature="0" />
        </g>
        <g
           id="g292"
           transform="translate(78.834,752.6099)">
          <path
             d="m 0,0 c 0.292,0 0.465,-0.296 0.465,-0.58 0,-0.375 -0.23,-0.598 -0.453,-0.598 -0.289,0 -0.462,0.295 -0.462,0.58 C -0.45,-0.224 -0.221,0 0,0 m 0.015,-1.519 c 0.389,0 0.79,0.352 0.79,0.939 0,0.452 -0.301,0.92 -0.805,0.92 -0.389,0 -0.79,-0.351 -0.79,-0.938 0,-0.452 0.302,-0.921 0.805,-0.921"
             style="fill:#a4a4a5;fill-opacity:1;fill-rule:nonzero;stroke:none"
             id="path294"
             inkscape:connector-curvature="0" />
        </g>
        <path
           d="m 80.129,751.134 0.339,0 0,1.773 -0.339,0 0,-1.773 z"
           style="fill:#a4a4a5;fill-opacity:1;fill-rule:nonzero;stroke:none"
           id="path296"
           inkscape:connector-curvature="0" />
        <g
           id="g298"
           transform="translate(81.7505,752.6099)">
          <path
             d="m 0,0 c 0.29,0 0.464,-0.296 0.464,-0.58 0,-0.375 -0.229,-0.598 -0.453,-0.598 -0.289,0 -0.461,0.295 -0.461,0.58 C -0.45,-0.224 -0.221,0 0,0 m -0.791,-0.598 c 0,-0.452 0.301,-0.921 0.806,-0.921 0.388,0 0.79,0.352 0.79,0.939 0,0.452 -0.302,0.92 -0.805,0.92 -0.389,0 -0.791,-0.351 -0.791,-0.938"
             style="fill:#a4a4a5;fill-opacity:1;fill-rule:nonzero;stroke:none"
             id="path300"
             inkscape:connector-curvature="0" />
        </g>
        <g
           id="g302"
           transform="translate(83.7886,752.6099)">
          <path
             d="m 0,0 c 0.292,0 0.466,-0.296 0.466,-0.58 0,-0.375 -0.231,-0.598 -0.453,-0.598 -0.29,0 -0.462,0.295 -0.462,0.58 C -0.449,-0.224 -0.221,0 0,0 m -0.789,-0.598 c 0,-0.452 0.302,-0.921 0.805,-0.921 0.388,0 0.79,0.352 0.79,0.939 0,0.452 -0.301,0.92 -0.806,0.92 -0.387,0 -0.789,-0.351 -0.789,-0.938"
             style="fill:#a4a4a5;fill-opacity:1;fill-rule:nonzero;stroke:none"
             id="path304"
             inkscape:connector-curvature="0" />
        </g>
        <g
           id="g306"
           transform="translate(59.0122,748.9839)">
          <path
             d="m 0,0 c 0.291,0 0.464,-0.295 0.464,-0.58 0,-0.374 -0.23,-0.598 -0.452,-0.598 -0.29,0 -0.463,0.295 -0.463,0.58 C -0.451,-0.225 -0.222,0 0,0 m 0.015,-1.518 c 0.388,0 0.789,0.351 0.789,0.938 0,0.452 -0.301,0.92 -0.804,0.92 -0.388,0 -0.79,-0.352 -0.79,-0.938 0,-0.452 0.302,-0.92 0.805,-0.92"
             style="fill:#a4a4a5;fill-opacity:1;fill-rule:nonzero;stroke:none"
             id="path308"
             inkscape:connector-curvature="0" />
        </g>
        <g
           id="g310"
           transform="translate(61.0518,748.9839)">
          <path
             d="m 0,0 c 0.292,0 0.465,-0.295 0.465,-0.58 0,-0.374 -0.231,-0.598 -0.453,-0.598 -0.288,0 -0.461,0.295 -0.461,0.58 C -0.449,-0.225 -0.221,0 0,0 m 0.015,-1.518 c 0.389,0 0.79,0.351 0.79,0.938 0,0.452 -0.302,0.92 -0.805,0.92 -0.389,0 -0.79,-0.352 -0.79,-0.938 0,-0.452 0.301,-0.92 0.805,-0.92"
             style="fill:#a4a4a5;fill-opacity:1;fill-rule:nonzero;stroke:none"
             id="path312"
             inkscape:connector-curvature="0" />
        </g>
        <path
           d="m 62.347,747.508 0.34,0 0,1.773 -0.34,0 0,-1.773 z"
           style="fill:#a4a4a5;fill-opacity:1;fill-rule:nonzero;stroke:none"
           id="path314"
           inkscape:connector-curvature="0" />
        <g
           id="g316"
           transform="translate(63.9683,748.9839)">
          <path
             d="m 0,0 c 0.29,0 0.464,-0.295 0.464,-0.58 0,-0.374 -0.231,-0.598 -0.453,-0.598 -0.289,0 -0.462,0.295 -0.462,0.58 C -0.451,-0.225 -0.222,0 0,0 m 0.014,-1.518 c 0.389,0 0.791,0.351 0.791,0.938 0,0.452 -0.302,0.92 -0.805,0.92 -0.389,0 -0.79,-0.352 -0.79,-0.938 0,-0.452 0.302,-0.92 0.804,-0.92"
             style="fill:#a4a4a5;fill-opacity:1;fill-rule:nonzero;stroke:none"
             id="path318"
             inkscape:connector-curvature="0" />
        </g>
        <path
           d="m 65.264,747.508 0.339,0 0,1.773 -0.339,0 0,-1.773 z"
           style="fill:#a4a4a5;fill-opacity:1;fill-rule:nonzero;stroke:none"
           id="path320"
           inkscape:connector-curvature="0" />
        <g
           id="g322"
           transform="translate(66.8828,748.9839)">
          <path
             d="m 0,0 c 0.292,0 0.466,-0.295 0.466,-0.58 0,-0.374 -0.231,-0.598 -0.453,-0.598 -0.289,0 -0.462,0.295 -0.462,0.58 C -0.449,-0.225 -0.221,0 0,0 m 0,0.34 c -0.388,0 -0.789,-0.352 -0.789,-0.938 0,-0.452 0.301,-0.92 0.805,-0.92 0.388,0 0.789,0.351 0.789,0.938 0,0.452 -0.3,0.92 -0.805,0.92"
             style="fill:#a4a4a5;fill-opacity:1;fill-rule:nonzero;stroke:none"
             id="path324"
             inkscape:connector-curvature="0" />
        </g>
        <path
           d="m 68.519,749.281 -0.34,0 0,-1.773 0.34,0 0,1.773 z"
           style="fill:#a4a4a5;fill-opacity:1;fill-rule:nonzero;stroke:none"
           id="path326"
           inkscape:connector-curvature="0" />
        <path
           d="m 69.395,749.281 -0.339,0 0,-1.773 0.339,0 0,1.773 z"
           style="fill:#a4a4a5;fill-opacity:1;fill-rule:nonzero;stroke:none"
           id="path328"
           inkscape:connector-curvature="0" />
        <g
           id="g330"
           transform="translate(70.6748,748.9839)">
          <path
             d="m 0,0 c 0.291,0 0.466,-0.295 0.466,-0.58 0,-0.374 -0.231,-0.598 -0.454,-0.598 -0.289,0 -0.461,0.295 -0.461,0.58 C -0.449,-0.225 -0.221,0 0,0 m 0.016,-1.518 c 0.388,0 0.789,0.351 0.789,0.938 0,0.452 -0.301,0.92 -0.805,0.92 -0.388,0 -0.79,-0.352 -0.79,-0.938 0,-0.452 0.302,-0.92 0.806,-0.92"
             style="fill:#a4a4a5;fill-opacity:1;fill-rule:nonzero;stroke:none"
             id="path332"
             inkscape:connector-curvature="0" />
        </g>
        <path
           d="m 72.311,749.281 -0.341,0 0,-1.773 0.341,0 0,1.773 z"
           style="fill:#a4a4a5;fill-opacity:1;fill-rule:nonzero;stroke:none"
           id="path334"
           inkscape:connector-curvature="0" />
        <g
           id="g336"
           transform="translate(73.5913,748.9839)">
          <path
             d="m 0,0 c 0.291,0 0.464,-0.295 0.464,-0.58 0,-0.374 -0.23,-0.598 -0.451,-0.598 -0.29,0 -0.463,0.295 -0.463,0.58 C -0.45,-0.225 -0.221,0 0,0 m 0.016,-1.518 c 0.387,0 0.789,0.351 0.789,0.938 0,0.452 -0.301,0.92 -0.805,0.92 -0.388,0 -0.79,-0.352 -0.79,-0.938 0,-0.452 0.302,-0.92 0.806,-0.92"
             style="fill:#a4a4a5;fill-opacity:1;fill-rule:nonzero;stroke:none"
             id="path338"
             inkscape:connector-curvature="0" />
        </g>
        <g
           id="g340"
           transform="translate(75.6309,748.9839)">
          <path
             d="m 0,0 c 0.291,0 0.465,-0.295 0.465,-0.58 0,-0.374 -0.23,-0.598 -0.453,-0.598 -0.288,0 -0.462,0.295 -0.462,0.58 C -0.45,-0.225 -0.221,0 0,0 m 0.016,-1.518 c 0.388,0 0.789,0.351 0.789,0.938 0,0.452 -0.301,0.92 -0.805,0.92 -0.388,0 -0.789,-0.352 -0.789,-0.938 0,-0.452 0.301,-0.92 0.805,-0.92"
             style="fill:#a4a4a5;fill-opacity:1;fill-rule:nonzero;stroke:none"
             id="path342"
             inkscape:connector-curvature="0" />
        </g>
        <path
           d="m 77.267,749.281 -0.34,0 0,-1.773 0.34,0 0,1.773 z"
           style="fill:#a4a4a5;fill-opacity:1;fill-rule:nonzero;stroke:none"
           id="path344"
           inkscape:connector-curvature="0" />
        <g
           id="g346"
           transform="translate(78.5469,748.9839)">
          <path
             d="m 0,0 c 0.292,0 0.465,-0.295 0.465,-0.58 0,-0.374 -0.231,-0.598 -0.453,-0.598 -0.289,0 -0.461,0.295 -0.461,0.58 C -0.449,-0.225 -0.221,0 0,0 m 0.016,-1.518 c 0.388,0 0.789,0.351 0.789,0.938 0,0.452 -0.302,0.92 -0.805,0.92 -0.388,0 -0.79,-0.352 -0.79,-0.938 0,-0.452 0.301,-0.92 0.806,-0.92"
             style="fill:#a4a4a5;fill-opacity:1;fill-rule:nonzero;stroke:none"
             id="path348"
             inkscape:connector-curvature="0" />
        </g>
        <g
           id="g350"
           transform="translate(80.5864,748.9839)">
          <path
             d="m 0,0 c 0.291,0 0.465,-0.295 0.465,-0.58 0,-0.374 -0.23,-0.598 -0.452,-0.598 -0.29,0 -0.463,0.295 -0.463,0.58 C -0.45,-0.225 -0.221,0 0,0 m 0.015,-1.518 c 0.388,0 0.79,0.351 0.79,0.938 0,0.452 -0.301,0.92 -0.805,0.92 -0.388,0 -0.79,-0.352 -0.79,-0.938 0,-0.452 0.301,-0.92 0.805,-0.92"
             style="fill:#a4a4a5;fill-opacity:1;fill-rule:nonzero;stroke:none"
             id="path352"
             inkscape:connector-curvature="0" />
        </g>
        <path
           d="m 81.882,747.508 0.34,0 0,1.773 -0.34,0 0,-1.773 z"
           style="fill:#a4a4a5;fill-opacity:1;fill-rule:nonzero;stroke:none"
           id="path354"
           inkscape:connector-curvature="0" />
        <g
           id="g356"
           transform="translate(83.5029,748.9839)">
          <path
             d="m 0,0 c 0.291,0 0.464,-0.295 0.464,-0.58 0,-0.374 -0.23,-0.598 -0.452,-0.598 -0.289,0 -0.462,0.295 -0.462,0.58 C -0.45,-0.225 -0.222,0 0,0 m 0.805,-0.58 c 0,0.452 -0.302,0.92 -0.805,0.92 -0.389,0 -0.79,-0.352 -0.79,-0.938 0,-0.452 0.3,-0.92 0.805,-0.92 0.388,0 0.79,0.351 0.79,0.938"
             style="fill:#a4a4a5;fill-opacity:1;fill-rule:nonzero;stroke:none"
             id="path358"
             inkscape:connector-curvature="0" />
        </g>
        <path
           d="m 58.269,743.881 0.338,0 0,1.774 -0.338,0 0,-1.774 z"
           style="fill:#a4a4a5;fill-opacity:1;fill-rule:nonzero;stroke:none"
           id="path360"
           inkscape:connector-curvature="0" />
        <g
           id="g362"
           transform="translate(59.8877,745.3574)">
          <path
             d="m 0,0 c 0.292,0 0.466,-0.294 0.466,-0.58 0,-0.375 -0.23,-0.598 -0.454,-0.598 -0.288,0 -0.461,0.295 -0.461,0.58 C -0.449,-0.224 -0.221,0 0,0 m 0.805,-0.58 c 0,0.452 -0.301,0.92 -0.805,0.92 -0.388,0 -0.79,-0.351 -0.79,-0.938 0,-0.452 0.302,-0.92 0.806,-0.92 0.388,0 0.789,0.351 0.789,0.938"
             style="fill:#a4a4a5;fill-opacity:1;fill-rule:nonzero;stroke:none"
             id="path364"
             inkscape:connector-curvature="0" />
        </g>
        <g
           id="g366"
           transform="translate(61.9277,745.3574)">
          <path
             d="m 0,0 c 0.291,0 0.465,-0.294 0.465,-0.58 0,-0.375 -0.23,-0.598 -0.453,-0.598 -0.289,0 -0.462,0.295 -0.462,0.58 C -0.45,-0.224 -0.221,0 0,0 m 0.805,-0.58 c 0,0.452 -0.302,0.92 -0.805,0.92 -0.388,0 -0.79,-0.351 -0.79,-0.938 0,-0.452 0.302,-0.92 0.806,-0.92 0.387,0 0.789,0.351 0.789,0.938"
             style="fill:#a4a4a5;fill-opacity:1;fill-rule:nonzero;stroke:none"
             id="path368"
             inkscape:connector-curvature="0" />
        </g>
        <path
           d="m 63.223,743.881 0.339,0 0,1.774 -0.339,0 0,-1.774 z"
           style="fill:#a4a4a5;fill-opacity:1;fill-rule:nonzero;stroke:none"
           id="path370"
           inkscape:connector-curvature="0" />
        <g
           id="g372"
           transform="translate(64.8438,745.3574)">
          <path
             d="m 0,0 c 0.291,0 0.465,-0.294 0.465,-0.58 0,-0.375 -0.23,-0.598 -0.453,-0.598 -0.289,0 -0.462,0.295 -0.462,0.58 C -0.45,-0.224 -0.221,0 0,0 m 0.805,-0.58 c 0,0.452 -0.302,0.92 -0.805,0.92 -0.388,0 -0.79,-0.351 -0.79,-0.938 0,-0.452 0.301,-0.92 0.806,-0.92 0.388,0 0.789,0.351 0.789,0.938"
             style="fill:#a4a4a5;fill-opacity:1;fill-rule:nonzero;stroke:none"
             id="path374"
             inkscape:connector-curvature="0" />
        </g>
        <g
           id="g376"
           transform="translate(66.8828,745.3574)">
          <path
             d="m 0,0 c 0.292,0 0.466,-0.294 0.466,-0.58 0,-0.375 -0.231,-0.598 -0.453,-0.598 -0.289,0 -0.462,0.295 -0.462,0.58 C -0.449,-0.224 -0.221,0 0,0 m 0,0.34 c -0.388,0 -0.789,-0.351 -0.789,-0.938 0,-0.452 0.301,-0.92 0.805,-0.92 0.388,0 0.789,0.351 0.789,0.938 0,0.452 -0.3,0.92 -0.805,0.92"
             style="fill:#a4a4a5;fill-opacity:1;fill-rule:nonzero;stroke:none"
             id="path378"
             inkscape:connector-curvature="0" />
        </g>
        <path
           d="m 68.179,743.881 0.34,0 0,1.774 -0.34,0 0,-1.774 z"
           style="fill:#a4a4a5;fill-opacity:1;fill-rule:nonzero;stroke:none"
           id="path380"
           inkscape:connector-curvature="0" />
        <g
           id="g382"
           transform="translate(69.7993,745.3574)">
          <path
             d="m 0,0 c 0.291,0 0.465,-0.294 0.465,-0.58 0,-0.375 -0.231,-0.598 -0.453,-0.598 -0.289,0 -0.461,0.295 -0.461,0.58 C -0.449,-0.224 -0.221,0 0,0 m 0.805,-0.58 c 0,0.452 -0.301,0.92 -0.805,0.92 -0.388,0 -0.789,-0.351 -0.789,-0.938 0,-0.452 0.3,-0.92 0.804,-0.92 0.388,0 0.79,0.351 0.79,0.938"
             style="fill:#a4a4a5;fill-opacity:1;fill-rule:nonzero;stroke:none"
             id="path384"
             inkscape:connector-curvature="0" />
        </g>
        <path
           d="m 71.095,743.881 0.34,0 0,1.774 -0.34,0 0,-1.774 z"
           style="fill:#a4a4a5;fill-opacity:1;fill-rule:nonzero;stroke:none"
           id="path386"
           inkscape:connector-curvature="0" />
        <g
           id="g388"
           transform="translate(72.7153,745.3574)">
          <path
             d="m 0,0 c 0.291,0 0.465,-0.294 0.465,-0.58 0,-0.375 -0.231,-0.598 -0.453,-0.598 -0.289,0 -0.461,0.295 -0.461,0.58 C -0.449,-0.224 -0.222,0 0,0 m -0.79,-0.598 c 0,-0.452 0.301,-0.92 0.805,-0.92 0.388,0 0.789,0.351 0.789,0.938 0,0.452 -0.301,0.92 -0.804,0.92 -0.388,0 -0.79,-0.351 -0.79,-0.938"
             style="fill:#a4a4a5;fill-opacity:1;fill-rule:nonzero;stroke:none"
             id="path390"
             inkscape:connector-curvature="0" />
        </g>
        <path
           d="m 74.011,743.881 0.339,0 0,1.774 -0.339,0 0,-1.774 z"
           style="fill:#a4a4a5;fill-opacity:1;fill-rule:nonzero;stroke:none"
           id="path392"
           inkscape:connector-curvature="0" />
        <g
           id="g394"
           transform="translate(75.6309,745.3574)">
          <path
             d="m 0,0 c 0.291,0 0.465,-0.294 0.465,-0.58 0,-0.375 -0.23,-0.598 -0.453,-0.598 -0.288,0 -0.462,0.295 -0.462,0.58 C -0.45,-0.224 -0.221,0 0,0 m 0.016,-1.518 c 0.388,0 0.789,0.351 0.789,0.938 0,0.452 -0.301,0.92 -0.805,0.92 -0.388,0 -0.789,-0.351 -0.789,-0.938 0,-0.452 0.301,-0.92 0.805,-0.92"
             style="fill:#a4a4a5;fill-opacity:1;fill-rule:nonzero;stroke:none"
             id="path396"
             inkscape:connector-curvature="0" />
        </g>
        <path
           d="m 76.926,743.881 0.34,0 0,1.774 -0.34,0 0,-1.774 z"
           style="fill:#a4a4a5;fill-opacity:1;fill-rule:nonzero;stroke:none"
           id="path398"
           inkscape:connector-curvature="0" />
        <path
           d="m 77.803,743.881 0.34,0 0,1.774 -0.34,0 0,-1.774 z"
           style="fill:#a4a4a5;fill-opacity:1;fill-rule:nonzero;stroke:none"
           id="path400"
           inkscape:connector-curvature="0" />
        <g
           id="g402"
           transform="translate(79.4229,745.3574)">
          <path
             d="m 0,0 c 0.292,0 0.465,-0.294 0.465,-0.58 0,-0.375 -0.23,-0.598 -0.453,-0.598 -0.289,0 -0.461,0.295 -0.461,0.58 C -0.449,-0.224 -0.221,0 0,0 m 0,0.34 c -0.388,0 -0.79,-0.351 -0.79,-0.938 0,-0.452 0.302,-0.92 0.806,-0.92 0.387,0 0.79,0.351 0.79,0.938 0,0.452 -0.302,0.92 -0.806,0.92"
             style="fill:#a4a4a5;fill-opacity:1;fill-rule:nonzero;stroke:none"
             id="path404"
             inkscape:connector-curvature="0" />
        </g>
        <path
           d="m 81.059,745.656 -0.34,0 0,-1.774 0.34,0 0,1.774 z"
           style="fill:#a4a4a5;fill-opacity:1;fill-rule:nonzero;stroke:none"
           id="path406"
           inkscape:connector-curvature="0" />
        <g
           id="g408"
           transform="translate(82.3389,745.3574)">
          <path
             d="m 0,0 c 0.292,0 0.466,-0.294 0.466,-0.58 0,-0.375 -0.231,-0.598 -0.453,-0.598 -0.29,0 -0.463,0.295 -0.463,0.58 C -0.45,-0.224 -0.222,0 0,0 m -0.79,-0.598 c 0,-0.452 0.302,-0.92 0.806,-0.92 0.388,0 0.789,0.351 0.789,0.938 0,0.452 -0.302,0.92 -0.805,0.92 -0.388,0 -0.79,-0.351 -0.79,-0.938"
             style="fill:#a4a4a5;fill-opacity:1;fill-rule:nonzero;stroke:none"
             id="path410"
             inkscape:connector-curvature="0" />
        </g>
        <path
           d="m 83.974,745.656 -0.34,0 0,-1.774 0.34,0 0,1.774 z"
           style="fill:#a4a4a5;fill-opacity:1;fill-rule:nonzero;stroke:none"
           id="path412"
           inkscape:connector-curvature="0" />
        <g
           id="g414"
           transform="translate(59.0122,741.7314)">
          <path
             d="m 0,0 c 0.291,0 0.464,-0.295 0.464,-0.58 0,-0.374 -0.23,-0.598 -0.452,-0.598 -0.29,0 -0.463,0.295 -0.463,0.58 C -0.451,-0.224 -0.222,0 0,0 m 0,0.339 c -0.388,0 -0.79,-0.349 -0.79,-0.937 0,-0.452 0.302,-0.92 0.805,-0.92 0.388,0 0.789,0.351 0.789,0.938 0,0.453 -0.301,0.919 -0.804,0.919"
             style="fill:#a4a4a5;fill-opacity:1;fill-rule:nonzero;stroke:none"
             id="path416"
             inkscape:connector-curvature="0" />
        </g>
        <g
           id="g418"
           transform="translate(61.0518,741.7314)">
          <path
             d="m 0,0 c 0.292,0 0.465,-0.295 0.465,-0.58 0,-0.374 -0.231,-0.598 -0.453,-0.598 -0.288,0 -0.461,0.295 -0.461,0.58 C -0.449,-0.224 -0.221,0 0,0 m 0,0.339 c -0.389,0 -0.79,-0.349 -0.79,-0.937 0,-0.452 0.301,-0.92 0.805,-0.92 0.389,0 0.79,0.351 0.79,0.938 0,0.453 -0.302,0.919 -0.805,0.919"
             style="fill:#a4a4a5;fill-opacity:1;fill-rule:nonzero;stroke:none"
             id="path420"
             inkscape:connector-curvature="0" />
        </g>
        <g
           id="g422"
           transform="translate(63.0913,741.7314)">
          <path
             d="m 0,0 c 0.292,0 0.465,-0.295 0.465,-0.58 0,-0.374 -0.231,-0.598 -0.453,-0.598 -0.29,0 -0.462,0.295 -0.462,0.58 C -0.45,-0.224 -0.221,0 0,0 m 0.806,-0.58 c 0,0.453 -0.302,0.919 -0.806,0.919 -0.388,0 -0.79,-0.349 -0.79,-0.937 0,-0.452 0.302,-0.92 0.805,-0.92 0.388,0 0.791,0.351 0.791,0.938"
             style="fill:#a4a4a5;fill-opacity:1;fill-rule:nonzero;stroke:none"
             id="path424"
             inkscape:connector-curvature="0" />
        </g>
        <path
           d="m 64.727,742.029 -0.34,0 0,-1.773 0.34,0 0,1.773 z"
           style="fill:#a4a4a5;fill-opacity:1;fill-rule:nonzero;stroke:none"
           id="path426"
           inkscape:connector-curvature="0" />
        <g
           id="g428"
           transform="translate(66.0073,741.7314)">
          <path
             d="m 0,0 c 0.291,0 0.465,-0.295 0.465,-0.58 0,-0.374 -0.231,-0.598 -0.453,-0.598 -0.29,0 -0.461,0.295 -0.461,0.58 C -0.449,-0.224 -0.221,0 0,0 m 0.805,-0.58 c 0,0.453 -0.301,0.919 -0.805,0.919 -0.388,0 -0.79,-0.349 -0.79,-0.937 0,-0.452 0.301,-0.92 0.805,-0.92 0.388,0 0.79,0.351 0.79,0.938"
             style="fill:#a4a4a5;fill-opacity:1;fill-rule:nonzero;stroke:none"
             id="path430"
             inkscape:connector-curvature="0" />
        </g>
        <path
           d="m 67.643,742.029 -0.34,0 0,-1.773 0.34,0 0,1.773 z"
           style="fill:#a4a4a5;fill-opacity:1;fill-rule:nonzero;stroke:none"
           id="path432"
           inkscape:connector-curvature="0" />
        <g
           id="g434"
           transform="translate(68.9229,741.7314)">
          <path
             d="m 0,0 c 0.292,0 0.465,-0.295 0.465,-0.58 0,-0.374 -0.23,-0.598 -0.453,-0.598 -0.288,0 -0.461,0.295 -0.461,0.58 C -0.449,-0.224 -0.221,0 0,0 m 0,0.339 c -0.389,0 -0.79,-0.349 -0.79,-0.937 0,-0.452 0.301,-0.92 0.806,-0.92 0.387,0 0.79,0.351 0.79,0.938 0,0.453 -0.302,0.919 -0.806,0.919"
             style="fill:#a4a4a5;fill-opacity:1;fill-rule:nonzero;stroke:none"
             id="path436"
             inkscape:connector-curvature="0" />
        </g>
        <g
           id="g438"
           transform="translate(70.9619,741.7314)">
          <path
             d="m 0,0 c 0.292,0 0.465,-0.295 0.465,-0.58 0,-0.374 -0.229,-0.598 -0.452,-0.598 -0.289,0 -0.462,0.295 -0.462,0.58 C -0.449,-0.224 -0.22,0 0,0 m 0,0.339 c -0.387,0 -0.79,-0.349 -0.79,-0.937 0,-0.452 0.302,-0.92 0.806,-0.92 0.388,0 0.79,0.351 0.79,0.938 0,0.453 -0.301,0.919 -0.806,0.919"
             style="fill:#a4a4a5;fill-opacity:1;fill-rule:nonzero;stroke:none"
             id="path440"
             inkscape:connector-curvature="0" />
        </g>
        <path
           d="m 72.598,742.029 -0.34,0 0,-1.773 0.34,0 0,1.773 z"
           style="fill:#a4a4a5;fill-opacity:1;fill-rule:nonzero;stroke:none"
           id="path442"
           inkscape:connector-curvature="0" />
        <g
           id="g444"
           transform="translate(73.8779,741.7314)">
          <path
             d="m 0,0 c 0.292,0 0.466,-0.295 0.466,-0.58 0,-0.374 -0.231,-0.598 -0.454,-0.598 -0.288,0 -0.46,0.295 -0.46,0.58 C -0.448,-0.224 -0.221,0 0,0 m 0.805,-0.58 c 0,0.453 -0.3,0.919 -0.805,0.919 -0.388,0 -0.79,-0.349 -0.79,-0.937 0,-0.452 0.302,-0.92 0.806,-0.92 0.388,0 0.789,0.351 0.789,0.938"
             style="fill:#a4a4a5;fill-opacity:1;fill-rule:nonzero;stroke:none"
             id="path446"
             inkscape:connector-curvature="0" />
        </g>
        <g
           id="g448"
           transform="translate(75.9185,741.7314)">
          <path
             d="m 0,0 c 0.291,0 0.464,-0.295 0.464,-0.58 0,-0.374 -0.23,-0.598 -0.452,-0.598 -0.289,0 -0.461,0.295 -0.461,0.58 C -0.449,-0.224 -0.221,0 0,0 m 0,0.339 c -0.388,0 -0.79,-0.349 -0.79,-0.937 0,-0.452 0.301,-0.92 0.805,-0.92 0.388,0 0.79,0.351 0.79,0.938 0,0.453 -0.302,0.919 -0.805,0.919"
             style="fill:#a4a4a5;fill-opacity:1;fill-rule:nonzero;stroke:none"
             id="path450"
             inkscape:connector-curvature="0" />
        </g>
        <g
           id="g452"
           transform="translate(77.9575,741.7314)">
          <path
             d="m 0,0 c 0.291,0 0.465,-0.295 0.465,-0.58 0,-0.374 -0.23,-0.598 -0.453,-0.598 -0.289,0 -0.461,0.295 -0.461,0.58 C -0.449,-0.224 -0.221,0 0,0 m 0,0.339 c -0.388,0 -0.79,-0.349 -0.79,-0.937 0,-0.452 0.302,-0.92 0.805,-0.92 0.389,0 0.79,0.351 0.79,0.938 0,0.453 -0.3,0.919 -0.805,0.919"
             style="fill:#a4a4a5;fill-opacity:1;fill-rule:nonzero;stroke:none"
             id="path454"
             inkscape:connector-curvature="0" />
        </g>
        <g
           id="g456"
           transform="translate(79.9976,741.7314)">
          <path
             d="m 0,0 c 0.291,0 0.465,-0.295 0.465,-0.58 0,-0.374 -0.23,-0.598 -0.453,-0.598 -0.29,0 -0.461,0.295 -0.461,0.58 C -0.449,-0.224 -0.221,0 0,0 m 0,0.339 c -0.388,0 -0.79,-0.349 -0.79,-0.937 0,-0.452 0.301,-0.92 0.805,-0.92 0.388,0 0.79,0.351 0.79,0.938 0,0.453 -0.302,0.919 -0.805,0.919"
             style="fill:#a4a4a5;fill-opacity:1;fill-rule:nonzero;stroke:none"
             id="path458"
             inkscape:connector-curvature="0" />
        </g>
        <path
           d="m 81.293,740.256 0.339,0 0,1.773 -0.339,0 0,-1.773 z"
           style="fill:#a4a4a5;fill-opacity:1;fill-rule:nonzero;stroke:none"
           id="path460"
           inkscape:connector-curvature="0" />
        <g
           id="g462"
           transform="translate(82.9136,741.7314)">
          <path
             d="m 0,0 c 0.291,0 0.465,-0.295 0.465,-0.58 0,-0.374 -0.231,-0.598 -0.453,-0.598 -0.289,0 -0.462,0.295 -0.462,0.58 C -0.45,-0.224 -0.222,0 0,0 m 0,0.339 c -0.388,0 -0.79,-0.349 -0.79,-0.937 0,-0.452 0.301,-0.92 0.806,-0.92 0.387,0 0.789,0.351 0.789,0.938 0,0.453 -0.302,0.919 -0.805,0.919"
             style="fill:#a4a4a5;fill-opacity:1;fill-rule:nonzero;stroke:none"
             id="path464"
             inkscape:connector-curvature="0" />
        </g>
        <path
           d="m 84.548,742.029 -0.34,0 0,-1.773 0.34,0 0,1.773 z"
           style="fill:#a4a4a5;fill-opacity:1;fill-rule:nonzero;stroke:none"
           id="path466"
           inkscape:connector-curvature="0" />
        <g
           id="g468"
           transform="translate(59.0122,738.1055)">
          <path
             d="m 0,0 c 0.291,0 0.464,-0.295 0.464,-0.58 0,-0.375 -0.23,-0.597 -0.452,-0.597 -0.29,0 -0.463,0.293 -0.463,0.579 C -0.451,-0.224 -0.222,0 0,0 m 0,0.34 c -0.388,0 -0.79,-0.351 -0.79,-0.938 0,-0.453 0.302,-0.92 0.805,-0.92 0.388,0 0.789,0.351 0.789,0.938 0,0.452 -0.301,0.92 -0.804,0.92"
             style="fill:#a4a4a5;fill-opacity:1;fill-rule:nonzero;stroke:none"
             id="path470"
             inkscape:connector-curvature="0" />
        </g>
        <g
           id="g472"
           transform="translate(61.0518,738.1055)">
          <path
             d="m 0,0 c 0.292,0 0.465,-0.295 0.465,-0.58 0,-0.375 -0.231,-0.597 -0.453,-0.597 -0.288,0 -0.461,0.293 -0.461,0.579 C -0.449,-0.224 -0.221,0 0,0 m 0,0.34 c -0.389,0 -0.79,-0.351 -0.79,-0.938 0,-0.453 0.301,-0.92 0.805,-0.92 0.389,0 0.79,0.351 0.79,0.938 0,0.452 -0.302,0.92 -0.805,0.92"
             style="fill:#a4a4a5;fill-opacity:1;fill-rule:nonzero;stroke:none"
             id="path474"
             inkscape:connector-curvature="0" />
        </g>
        <path
           d="m 62.347,736.63 0.34,0 0,1.772 -0.34,0 0,-1.772 z"
           style="fill:#a4a4a5;fill-opacity:1;fill-rule:nonzero;stroke:none"
           id="path476"
           inkscape:connector-curvature="0" />
        <g
           id="g478"
           transform="translate(63.9683,738.1055)">
          <path
             d="m 0,0 c 0.29,0 0.464,-0.295 0.464,-0.58 0,-0.375 -0.231,-0.597 -0.453,-0.597 -0.289,0 -0.462,0.293 -0.462,0.579 C -0.451,-0.224 -0.222,0 0,0 m 0,0.34 c -0.389,0 -0.79,-0.351 -0.79,-0.938 0,-0.453 0.302,-0.92 0.804,-0.92 0.389,0 0.791,0.351 0.791,0.938 0,0.452 -0.302,0.92 -0.805,0.92"
             style="fill:#a4a4a5;fill-opacity:1;fill-rule:nonzero;stroke:none"
             id="path480"
             inkscape:connector-curvature="0" />
        </g>
        <path
           d="m 65.264,736.63 0.339,0 0,1.772 -0.339,0 0,-1.772 z"
           style="fill:#a4a4a5;fill-opacity:1;fill-rule:nonzero;stroke:none"
           id="path482"
           inkscape:connector-curvature="0" />
        <g
           id="g484"
           transform="translate(66.8828,738.1055)">
          <path
             d="m 0,0 c 0.292,0 0.466,-0.295 0.466,-0.58 0,-0.375 -0.231,-0.597 -0.453,-0.597 -0.289,0 -0.462,0.293 -0.462,0.579 C -0.449,-0.224 -0.221,0 0,0 m 0,0.34 c -0.388,0 -0.789,-0.351 -0.789,-0.938 0,-0.453 0.301,-0.92 0.805,-0.92 0.388,0 0.789,0.351 0.789,0.938 0,0.452 -0.3,0.92 -0.805,0.92"
             style="fill:#a4a4a5;fill-opacity:1;fill-rule:nonzero;stroke:none"
             id="path486"
             inkscape:connector-curvature="0" />
        </g>
        <path
           d="m 68.179,736.63 0.34,0 0,1.772 -0.34,0 0,-1.772 z"
           style="fill:#a4a4a5;fill-opacity:1;fill-rule:nonzero;stroke:none"
           id="path488"
           inkscape:connector-curvature="0" />
        <path
           d="m 69.056,736.63 0.339,0 0,1.772 -0.339,0 0,-1.772 z"
           style="fill:#a4a4a5;fill-opacity:1;fill-rule:nonzero;stroke:none"
           id="path490"
           inkscape:connector-curvature="0" />
        <g
           id="g492"
           transform="translate(70.6748,738.1055)">
          <path
             d="m 0,0 c 0.291,0 0.466,-0.295 0.466,-0.58 0,-0.375 -0.231,-0.597 -0.454,-0.597 -0.289,0 -0.461,0.293 -0.461,0.579 C -0.449,-0.224 -0.221,0 0,0 m 0,0.34 c -0.388,0 -0.79,-0.351 -0.79,-0.938 0,-0.453 0.302,-0.92 0.806,-0.92 0.388,0 0.789,0.351 0.789,0.938 0,0.452 -0.301,0.92 -0.805,0.92"
             style="fill:#a4a4a5;fill-opacity:1;fill-rule:nonzero;stroke:none"
             id="path494"
             inkscape:connector-curvature="0" />
        </g>
        <g
           id="g496"
           transform="translate(72.7153,738.1055)">
          <path
             d="m 0,0 c 0.291,0 0.465,-0.295 0.465,-0.58 0,-0.375 -0.231,-0.597 -0.453,-0.597 -0.289,0 -0.461,0.293 -0.461,0.579 C -0.449,-0.224 -0.222,0 0,0 m 0,0.34 c -0.388,0 -0.79,-0.351 -0.79,-0.938 0,-0.453 0.301,-0.92 0.805,-0.92 0.388,0 0.789,0.351 0.789,0.938 0,0.452 -0.301,0.92 -0.804,0.92"
             style="fill:#a4a4a5;fill-opacity:1;fill-rule:nonzero;stroke:none"
             id="path498"
             inkscape:connector-curvature="0" />
        </g>
        <g
           id="g500"
           transform="translate(74.7554,738.1055)">
          <path
             d="m 0,0 c 0.29,0 0.464,-0.295 0.464,-0.58 0,-0.375 -0.23,-0.597 -0.452,-0.597 -0.289,0 -0.462,0.293 -0.462,0.579 C -0.45,-0.224 -0.221,0 0,0 m 0,0.34 c -0.389,0 -0.79,-0.351 -0.79,-0.938 0,-0.453 0.3,-0.92 0.805,-0.92 0.388,0 0.79,0.351 0.79,0.938 0,0.452 -0.301,0.92 -0.805,0.92"
             style="fill:#a4a4a5;fill-opacity:1;fill-rule:nonzero;stroke:none"
             id="path502"
             inkscape:connector-curvature="0" />
        </g>
        <path
           d="m 76.05,736.63 0.34,0 0,1.772 -0.34,0 0,-1.772 z"
           style="fill:#a4a4a5;fill-opacity:1;fill-rule:nonzero;stroke:none"
           id="path504"
           inkscape:connector-curvature="0" />
        <g
           id="g506"
           transform="translate(77.6714,738.1055)">
          <path
             d="m 0,0 c 0.29,0 0.464,-0.295 0.464,-0.58 0,-0.375 -0.23,-0.597 -0.453,-0.597 -0.289,0 -0.46,0.293 -0.46,0.579 C -0.449,-0.224 -0.221,0 0,0 m 0,0.34 c -0.389,0 -0.791,-0.351 -0.791,-0.938 0,-0.453 0.301,-0.92 0.805,-0.92 0.388,0 0.79,0.351 0.79,0.938 0,0.452 -0.301,0.92 -0.804,0.92"
             style="fill:#a4a4a5;fill-opacity:1;fill-rule:nonzero;stroke:none"
             id="path508"
             inkscape:connector-curvature="0" />
        </g>
        <g
           id="g510"
           transform="translate(79.7104,738.1055)">
          <path
             d="m 0,0 c 0.291,0 0.465,-0.295 0.465,-0.58 0,-0.375 -0.231,-0.597 -0.453,-0.597 -0.289,0 -0.462,0.293 -0.462,0.579 C -0.45,-0.224 -0.221,0 0,0 m 0,0.34 c -0.388,0 -0.79,-0.351 -0.79,-0.938 0,-0.453 0.301,-0.92 0.804,-0.92 0.389,0 0.79,0.351 0.79,0.938 0,0.452 -0.3,0.92 -0.804,0.92"
             style="fill:#a4a4a5;fill-opacity:1;fill-rule:nonzero;stroke:none"
             id="path512"
             inkscape:connector-curvature="0" />
        </g>
        <path
           d="m 81.006,736.63 0.339,0 0,1.772 -0.339,0 0,-1.772 z"
           style="fill:#a4a4a5;fill-opacity:1;fill-rule:nonzero;stroke:none"
           id="path514"
           inkscape:connector-curvature="0" />
        <g
           id="g516"
           transform="translate(82.626,738.1055)">
          <path
             d="m 0,0 c 0.291,0 0.464,-0.295 0.464,-0.58 0,-0.375 -0.229,-0.597 -0.452,-0.597 -0.289,0 -0.462,0.293 -0.462,0.579 C -0.45,-0.224 -0.221,0 0,0 m 0,0.34 c -0.387,0 -0.79,-0.351 -0.79,-0.938 0,-0.453 0.302,-0.92 0.806,-0.92 0.388,0 0.79,0.351 0.79,0.938 0,0.452 -0.302,0.92 -0.806,0.92"
             style="fill:#a4a4a5;fill-opacity:1;fill-rule:nonzero;stroke:none"
             id="path518"
             inkscape:connector-curvature="0" />
        </g>
        <g
           id="g520"
           transform="translate(84.6655,738.1055)">
          <path
             d="m 0,0 c 0.291,0 0.466,-0.295 0.466,-0.58 0,-0.375 -0.231,-0.597 -0.454,-0.597 -0.289,0 -0.461,0.293 -0.461,0.579 C -0.449,-0.224 -0.221,0 0,0 m 0,0.34 c -0.389,0 -0.79,-0.351 -0.79,-0.938 0,-0.453 0.301,-0.92 0.805,-0.92 0.388,0 0.79,0.351 0.79,0.938 0,0.452 -0.301,0.92 -0.805,0.92"
             style="fill:#a4a4a5;fill-opacity:1;fill-rule:nonzero;stroke:none"
             id="path522"
             inkscape:connector-curvature="0" />
        </g>
      </g>
    </g>
  </g>
</svg>
