<?xml version="1.0" encoding="UTF-8"?><svg id="Layer_1" xmlns="http://www.w3.org/2000/svg" viewBox="0 0 462.33 72"><defs><style>.cls-1{fill:#111f42;}</style></defs><path class="cls-1" d="m35.84,0c-8.7,0-16.45,2.93-22.11,7.76v9.64c4.82-5.24,12.68-9.85,22.22-9.85,15.51,0,27.46,12.16,27.46,28.51v22.53c5.14-5.45,8.39-13.31,8.39-22.53C71.79,15.3,55.76,0,35.84,0Z"/><path class="cls-1" d="m8.49,35.43V12.89C3.35,18.34,0,26.2,0,35.43c0,20.75,16.04,36.05,35.95,36.05,8.7,0,16.45-2.93,22.22-7.76v-9.64c-4.93,5.24-12.89,9.85-22.32,9.85-15.51,0-27.36-12.26-27.36-28.51Z"/><path class="cls-1" d="m119.66,1.15h-24.32v69.17h8.18V8.28h16.04c9.12,0,13.84,5.66,13.84,13s-4.72,12.89-13.84,12.89h-10.9v7.13h11c13.63,0,22.11-8.39,22.11-20.12S133.29,1.15,119.66,1.15Z"/><path class="cls-1" d="m200.37,16.25l5.98-4.51c-4.19-6.71-12.16-11.74-21.38-11.74-2.73,0-5.24.42-7.55,1.15v7.76c2.31-.94,5.03-1.36,7.34-1.36,6.29,0,11.95,3.14,15.62,8.7Z"/><path class="cls-1" d="m191.04,32.91l-7.65-3.67c-6.29-3.04-11.11-5.34-11.11-12.68V3.56c-5.03,3.04-8.49,8.07-8.49,14.57,0,9.75,7.55,14.57,15.62,18.45l7.76,3.67c6.81,3.25,11.53,5.76,11.53,13.21v14.15c5.24-3.35,8.49-8.59,8.49-15.41,0-9.33-5.97-14.46-16.14-19.28Z"/><path class="cls-1" d="m165.47,52.09l-6.08,4.51c5.34,9.12,14.57,14.88,25.26,14.88,3.25,0,6.18-.53,8.91-1.47v-7.65c-2.73.94-5.87,1.57-8.8,1.57-8.91,0-15.09-5.45-19.28-11.84Z"/><polygon class="cls-1" points="223.13 1.15 249.44 71.48 252.37 71.48 255.3 64.35 232.14 1.15 223.13 1.15"/><polygon class="cls-1" points="299.95 46.64 304.35 57.44 325.32 1.15 316.41 1.15 299.95 46.64"/><polygon class="cls-1" points="272.81 0 254.26 46.43 258.13 57.12 274.27 16.66 296.18 71.48 299.22 71.48 301.63 64.77 275.74 0 272.81 0"/><polygon class="cls-1" points="350.28 49.52 361.28 23.95 356.99 13.78 332.67 70.9 341.26 70.9 347.13 56.86 375.43 56.86 372.29 49.52 350.28 49.52"/><polygon class="cls-1" points="362.64 .58 359.71 7.18 386.96 70.9 395.66 70.9 365.69 .58 362.64 .58"/><rect class="cls-1" x="399.96" y="1.15" width="56.91" height="7.34"/><rect class="cls-1" x="424.27" y="13.62" width="8.18" height="56.7"/><path class="cls-1" d="m456.96,60.97c-2.96,0-5.41,2.47-5.41,5.52s2.45,5.5,5.41,5.5,5.37-2.47,5.37-5.5-2.4-5.52-5.37-5.52Z"/></svg>